# xmcd
#
# Track frame offsets: 
#        150
#        14681
#        27580
#        42214
#        53700
#        68130
#        83902
#        96612
#        105940
#        120225
#        145705
#        156121
#        175198
#        224556
#
# Disc length: 3438 seconds
#
# Revision: 0
# Processed by: cddbd v1.5.2PL0 Copyright (c) Steve Scherf et al.
# Submitted via: ExactAudioCopyFreeDBPlugin 1.0
#
DISCID=bd0d6c0e
DTITLE=Various artist - Movie Magic (High Society)
DYEAR=1900
DGENRE=New Age
TTITLE0=West Side Story
TTITLE1=Blue Velvet
TTITLE2=Mona Lisa
TTITLE3=Pinocchio
TTITLE4=Casablanca
TTITLE5=New York, New York
TTITLE6=Mr Holland's Opus
TTITLE7=Breakfast At Tiffany's
TTITLE8=The Deer Hunter
TTITLE9=Forget Paris
TTITLE10=The Fabulous Baker Boys
TTITLE11=Sound Of Music
TTITLE12=Midnight In The Garden Of Good And Evil
TTITLE13=Swing Kids
EXTD=
EXTT0=
EXTT1=
EXTT2=
EXTT3=
EXTT4=
EXTT5=
EXTT6=
EXTT7=
EXTT8=
EXTT9=
EXTT10=
EXTT11=
EXTT12=
EXTT13=
PLAYORDER=
